<svg id="visual" viewBox="0 0 900 600" width="900" height="600" xmlns="http://www.w3.org/2000/svg" xmlns:xlink="http://www.w3.org/1999/xlink" version="1.1"><rect x="0" y="0" width="900" height="600" fill="#fff"></rect><path d="M0 432L21.5 419.3C43 406.7 86 381.3 128.8 370.3C171.7 359.3 214.3 362.7 257.2 373.2C300 383.7 343 401.3 385.8 405C428.7 408.7 471.3 398.3 514.2 396C557 393.7 600 399.3 642.8 401.8C685.7 404.3 728.3 403.7 771.2 403.8C814 404 857 405 878.5 405.5L900 406L900 601L878.5 601C857 601 814 601 771.2 601C728.3 601 685.7 601 642.8 601C600 601 557 601 514.2 601C471.3 601 428.7 601 385.8 601C343 601 300 601 257.2 601C214.3 601 171.7 601 128.8 601C86 601 43 601 21.5 601L0 601Z" fill="#d3cec4"></path><path d="M0 462L21.5 461.5C43 461 86 460 128.8 452.3C171.7 444.7 214.3 430.3 257.2 422.8C300 415.3 343 414.7 385.8 422.8C428.7 431 471.3 448 514.2 452.3C557 456.7 600 448.3 642.8 446.5C685.7 444.7 728.3 449.3 771.2 452.2C814 455 857 456 878.5 456.5L900 457L900 601L878.5 601C857 601 814 601 771.2 601C728.3 601 685.7 601 642.8 601C600 601 557 601 514.2 601C471.3 601 428.7 601 385.8 601C343 601 300 601 257.2 601C214.3 601 171.7 601 128.8 601C86 601 43 601 21.5 601L0 601Z" fill="#aca79d"></path><path d="M0 458L21.5 458.5C43 459 86 460 128.8 464C171.7 468 214.3 475 257.2 481.3C300 487.7 343 493.3 385.8 497.8C428.7 502.3 471.3 505.7 514.2 497.2C557 488.7 600 468.3 642.8 459C685.7 449.7 728.3 451.3 771.2 460.5C814 469.7 857 486.3 878.5 494.7L900 503L900 601L878.5 601C857 601 814 601 771.2 601C728.3 601 685.7 601 642.8 601C600 601 557 601 514.2 601C471.3 601 428.7 601 385.8 601C343 601 300 601 257.2 601C214.3 601 171.7 601 128.8 601C86 601 43 601 21.5 601L0 601Z" fill="#878277"></path><path d="M0 504L21.5 500.3C43 496.7 86 489.3 128.8 490.5C171.7 491.7 214.3 501.3 257.2 507.7C300 514 343 517 385.8 516C428.7 515 471.3 510 514.2 508C557 506 600 507 642.8 511.5C685.7 516 728.3 524 771.2 526.3C814 528.7 857 525.3 878.5 523.7L900 522L900 601L878.5 601C857 601 814 601 771.2 601C728.3 601 685.7 601 642.8 601C600 601 557 601 514.2 601C471.3 601 428.7 601 385.8 601C343 601 300 601 257.2 601C214.3 601 171.7 601 128.8 601C86 601 43 601 21.5 601L0 601Z" fill="#635e54"></path><path d="M0 562L21.5 561.7C43 561.3 86 560.7 128.8 560.8C171.7 561 214.3 562 257.2 562C300 562 343 561 385.8 560.8C428.7 560.7 471.3 561.3 514.2 562.7C557 564 600 566 642.8 560.2C685.7 554.3 728.3 540.7 771.2 539.2C814 537.7 857 548.3 878.5 553.7L900 559L900 601L878.5 601C857 601 814 601 771.2 601C728.3 601 685.7 601 642.8 601C600 601 557 601 514.2 601C471.3 601 428.7 601 385.8 601C343 601 300 601 257.2 601C214.3 601 171.7 601 128.8 601C86 601 43 601 21.5 601L0 601Z" fill="#423d33"></path></svg>